<svg xmlns="http://www.w3.org/2000/svg" viewBox="0 0 512 512">
  <rect width="512" height="512" rx="0" fill="#F5F0E8"/>
  <rect x="40" y="40" width="432" height="432" rx="0" fill="#F5F0E8"/>
  <!-- Top rule lines -->
  <rect x="56" y="80" width="400" height="4" fill="#8B4513"/>
  <rect x="56" y="88" width="400" height="1.5" fill="#8B4513"/>
  <!-- Masthead: TDB -->
  <text x="256" y="175" text-anchor="middle" font-family="Georgia, serif" font-weight="900" font-size="100" fill="#8B4513" letter-spacing="-2">TDB</text>
  <!-- Subtitle -->
  <text x="256" y="210" text-anchor="middle" font-family="Georgia, serif" font-style="italic" font-size="22" fill="#8B4513" opacity="0.6">The Daily Brief</text>
  <!-- Column rules -->
  <rect x="56" y="235" width="400" height="2" fill="#1C1917"/>
  <line x1="192" y1="245" x2="192" y2="420" stroke="#D4D4D8" stroke-width="1"/>
  <line x1="320" y1="245" x2="320" y2="420" stroke="#D4D4D8" stroke-width="1"/>
  <!-- Column 1 text lines -->
  <rect x="68" y="252" width="110" height="8" rx="1" fill="#1C1917"/>
  <rect x="68" y="268" width="108" height="5" rx="1" fill="#1C1917" opacity="0.4"/>
  <rect x="68" y="278" width="100" height="5" rx="1" fill="#1C1917" opacity="0.4"/>
  <rect x="68" y="288" width="105" height="5" rx="1" fill="#1C1917" opacity="0.4"/>
  <rect x="68" y="308" width="110" height="8" rx="1" fill="#1C1917"/>
  <rect x="68" y="324" width="105" height="5" rx="1" fill="#1C1917" opacity="0.4"/>
  <rect x="68" y="334" width="100" height="5" rx="1" fill="#1C1917" opacity="0.4"/>
  <!-- Column 2 image + text -->
  <rect x="204" y="252" width="104" height="70" rx="2" fill="#D4D4D8"/>
  <rect x="204" y="332" width="104" height="8" rx="1" fill="#1C1917"/>
  <rect x="204" y="348" width="100" height="5" rx="1" fill="#1C1917" opacity="0.4"/>
  <rect x="204" y="358" width="95" height="5" rx="1" fill="#1C1917" opacity="0.4"/>
  <rect x="204" y="368" width="98" height="5" rx="1" fill="#1C1917" opacity="0.4"/>
  <!-- Column 3 text lines -->
  <rect x="332" y="252" width="112" height="8" rx="1" fill="#1C1917"/>
  <rect x="332" y="268" width="108" height="5" rx="1" fill="#1C1917" opacity="0.4"/>
  <rect x="332" y="278" width="100" height="5" rx="1" fill="#1C1917" opacity="0.4"/>
  <rect x="332" y="288" width="110" height="5" rx="1" fill="#1C1917" opacity="0.4"/>
  <rect x="332" y="298" width="95" height="5" rx="1" fill="#1C1917" opacity="0.4"/>
  <rect x="332" y="318" width="112" height="8" rx="1" fill="#1C1917"/>
  <rect x="332" y="334" width="105" height="5" rx="1" fill="#1C1917" opacity="0.4"/>
  <rect x="332" y="344" width="100" height="5" rx="1" fill="#1C1917" opacity="0.4"/>
  <!-- Bottom rule -->
  <rect x="56" y="425" width="400" height="1.5" fill="#D4D4D8"/>
</svg>
